# xmcd
#
# Track frame offsets: 
#        150
#        13719
#        27157
#        34079
#        47714
#        60080
#        71166
#        83871
#        97575
#        109899
#        122501
#        138061
#        150514
#        162837
#        174974
#
# Disc length: 2497 seconds
#
# Revision: 6
# Processed by: cddbd v1.5.2PL0 Copyright (c) Steve Scherf et al.
# Submitted via: ExactAudioCopy v0.99pb5
#
DISCID=a909bf0f
DTITLE=Various Artist - Classic Country - TL 626-20 - 1944 - 1949 - CD 2
DYEAR=2001
DGENRE=Country
TTITLE0=Pee Wee King And His Golden West Cowboys - Tennessee waltz
TTITLE1=Tex Williams /Smoke! Smoke! Smoke! (That cigarette)
TTITLE2=George Morgan - Room full of roses
TTITLE3=Wayne Raney - Why don't you haul off and love me
TTITLE4=Eddy Arnold - I'll hold you in my heart (till I can hold you i
TTITLE4=n my arms)
TTITLE5=Hank Thompson - Humpty dumpty heart
TTITLE6=Jimmy Wakely - One has my name (the other has my heart)
TTITLE7=Merle Travis - Divorce me C.O.D.
TTITLE8=Tex Ritter - You two-timed me one time too often
TTITLE9=Bob Wills and His Texas Playboys - Stay a little longer
TTITLE10=Ernest Tubb - It's been so long, darling
TTITLE11=Al Dexter - Guitar polka
TTITLE12=Gene Autry - Have I told you lately that I love you
TTITLE13=Sons Of The Pioneers - Tumbling tumbleweeds
TTITLE14=Hank Williams - Lovesick blues
EXTD=
EXTT0=
EXTT1=
EXTT2=
EXTT3=
EXTT4=
EXTT5=
EXTT6=
EXTT7=
EXTT8=
EXTT9=
EXTT10=
EXTT11=
EXTT12=
EXTT13=
EXTT14=
PLAYORDER=
